HIERARCHY
ROOT Hips
{
    OFFSET 0.000000 0.000000 0.000000
    CHANNELS 6 Xposition Yposition Zposition Zrotation Xrotation Yrotation
    JOINT Spine
    {
        OFFSET -0.000000 14.517291 0.000000
        CHANNELS 3 Zrotation Xrotation Yrotation
        JOINT Spine1
        {
            OFFSET -0.000000 37.558300 0.000000
            CHANNELS 3 Zrotation Xrotation Yrotation
            JOINT Neck
            {
                OFFSET -0.000000 37.404057 3.400369
                CHANNELS 3 Zrotation Xrotation Yrotation
                JOINT Head
                {
                    OFFSET -0.000000 24.785618 -3.540803
                    CHANNELS 3 Zrotation Xrotation Yrotation
                    End Site
                    {
                        OFFSET -0.000000 35.408028 0.000000
                    }
                }
            }
            JOINT LeftShoulder
            {
                OFFSET 6.992933 33.973492 -0.192664
                CHANNELS 3 Zrotation Xrotation Yrotation
                JOINT LeftArm
                {
                    OFFSET 21.527611 0.000000 0.000000
                    CHANNELS 3 Zrotation Xrotation Yrotation
                    JOINT LeftForeArm
                    {
                        OFFSET 56.353916 0.000000 0.000000
                        CHANNELS 3 Zrotation Xrotation Yrotation
                        JOINT LeftHand
                        {
                            OFFSET 47.774071 0.000000 0.000000
                            CHANNELS 3 Zrotation Xrotation Yrotation
                            End Site
                            {
                                OFFSET 26.556021 0.000000 0.000000
                            }
                        }
                    }
                }
            }
            JOINT RightShoulder
            {
                OFFSET -7.065357 33.973492 -0.192664
                CHANNELS 3 Zrotation Xrotation Yrotation
                JOINT RightArm
                {
                    OFFSET -21.527611 0.000000 0.000000
                    CHANNELS 3 Zrotation Xrotation Yrotation
                    JOINT RightForeArm
                    {
                        OFFSET -56.353916 0.000000 0.000000
                        CHANNELS 3 Zrotation Xrotation Yrotation
                        JOINT RightHand
                        {
                            OFFSET -47.774071 0.000000 0.000000
                            CHANNELS 3 Zrotation Xrotation Yrotation
                            End Site
                            {
                                OFFSET -26.556021 0.000000 0.000000
                            }
                        }
                    }
                }
            }
        }
    }
    JOINT LeftUpLeg
    {
        OFFSET 17.704014 0.000000 0.000000
        CHANNELS 3 Zrotation Xrotation Yrotation
        JOINT LeftLeg
        {
            OFFSET -0.000000 -81.181816 0.000000
            CHANNELS 3 Zrotation Xrotation Yrotation
            JOINT LeftFoot
            {
                OFFSET -0.000000 -62.821102 0.000000
                CHANNELS 3 Zrotation Xrotation Yrotation
                JOINT LeftToeBase
                {
                    OFFSET -0.000000 -11.507608 26.556021
                    CHANNELS 3 Zrotation Xrotation Yrotation
                    End Site
                    {
                        OFFSET -0.000000 0.000000 7.081605
                    }
                }
            }
        }
    }
    JOINT RightUpLeg
    {
        OFFSET -17.704014 0.000000 0.000000
        CHANNELS 3 Zrotation Xrotation Yrotation
        JOINT RightLeg
        {
            OFFSET -0.000000 -81.181816 0.000000
            CHANNELS 3 Zrotation Xrotation Yrotation
            JOINT RightFoot
            {
                OFFSET -0.000000 -62.821102 0.000000
                CHANNELS 3 Zrotation Xrotation Yrotation
                JOINT RightToeBase
                {
                    OFFSET -0.000000 -11.507608 26.556021
                    CHANNELS 3 Zrotation Xrotation Yrotation
                    End Site
                    {
                        OFFSET -0.000000 0.000000 7.081605
                    }
                }
            }
        }
    }
}
MOTION
Frames:    10
Frame Time:    0.008333
-1.824158    159.222870    -92.372047    -1.563940    4.334270    29.055162    2.436925    4.203445    -0.832251    -3.475992    1.756007    -0.193642    12.054152    -0.839829    -3.066687    -1.309649    -10.275776    -5.378614    4.982391    8.756520    -18.014263    -27.989336    24.831869    -55.601913    3.451111    -13.746241    -96.165672    6.097020    -10.579279    -11.348557    -6.048160    -0.500888    -0.087708    29.308498    -21.607964    60.466125    -23.155144    -18.784031    64.846550    -2.303035    -4.892055    36.674438    9.158435    -7.229243    -2.528272    -8.796472    24.877743    -20.752287    2.570163    -20.780956    40.188354    0.000000    0.000000    0.000000    -18.832222    -30.981550    -14.398041    15.377704    32.726982    -12.969050    7.556006    6.856431    -16.003296    0.000000    0.000000    0.000000    
-1.616844    159.188141    -92.418541    -1.550617    3.965193    29.017836    2.323893    4.117254    -0.828120    -3.413436    1.744636    -0.195472    12.060825    -0.897080    -3.090292    -1.221354    -9.926946    -5.386612    4.965090    8.735965    -18.015499    -28.098782    24.778790    -55.539799    3.257146    -13.429967    -96.437225    8.437767    -10.646393    -10.825010    -6.054363    -0.473849    -0.114769    29.297802    -21.557356    60.512600    -23.208019    -18.804838    64.763092    -2.280474    -4.897231    36.755451    9.269138    -6.917173    -2.521612    -8.835399    24.998655    -20.852283    2.800429    -20.897556    40.261040    0.000000    0.000000    0.000000    -18.665888    -30.620010    -14.365902    15.305999    32.683380    -12.891961    7.620250    6.907976    -15.938547    0.000000    0.000000    0.000000    
-1.395101    159.153992    -92.471626    -1.536179    3.570041    28.970148    2.293540    4.056601    -0.831642    -3.449843    1.744998    -0.196990    11.954413    -0.972889    -3.161520    -0.941214    -9.544683    -5.385564    4.985956    8.710836    -18.000862    -28.074539    24.780218    -55.676281    2.082197    -12.921509    -96.733215    9.886081    -11.560318    -10.951260    -6.060429    -0.458816    -0.112992    29.332380    -21.559082    60.543823    -23.187569    -18.792500    64.738823    -2.235289    -4.890519    36.772915    9.390879    -6.569590    -2.516306    -8.885145    25.100260    -20.955793    3.035295    -21.015064    40.358547    0.000000    0.000000    0.000000    -18.486549    -30.233912    -14.286915    15.265324    32.615883    -12.835647    7.712779    6.964205    -15.941567    0.000000    0.000000    0.000000    
-1.175078    159.126114    -92.532440    -1.518943    3.197538    28.913795    2.208465    3.992270    -0.822707    -3.416880    1.720312    -0.196628    11.903604    -1.032415    -3.213670    -0.776642    -9.171708    -5.398962    4.957787    8.692714    -17.976843    -27.965122    24.947824    -55.694134    2.120612    -13.052301    -96.806534    10.114705    -11.669039    -10.960894    -6.084719    -0.426032    -0.121028    29.394098    -21.567673    60.600410    -23.166546    -18.757183    64.743851    -2.242393    -4.867496    36.738220    9.494206    -6.238021    -2.514196    -8.934674    25.196581    -20.988506    3.243678    -21.130104    40.403263    0.000000    0.000000    0.000000    -18.319250    -29.872627    -14.166252    15.244434    32.537224    -12.852625    7.760440    7.040880    -15.894580    0.000000    0.000000    0.000000    
-0.967300    159.092728    -92.578903    -1.504808    2.818875    28.867741    2.127881    3.894812    -0.812731    -3.392370    1.733338    -0.194802    11.822521    -0.997665    -3.287948    -0.535660    -8.901143    -5.405495    4.962544    8.709189    -17.998730    -27.950048    24.939075    -55.655495    2.028296    -12.995490    -96.891701    9.849741    -11.694517    -11.070308    -6.109633    -0.408004    -0.085995    29.339083    -21.511395    60.583794    -23.395149    -18.708826    64.537819    -2.499183    -4.807415    36.670670    9.605691    -5.914335    -2.462339    -8.948509    25.326319    -21.075087    3.436863    -21.255344    40.429211    0.000000    0.000000    0.000000    -18.138144    -29.496223    -14.040888    15.216546    32.447918    -12.806910    7.832948    7.083586    -15.910682    0.000000    0.000000    0.000000    
-0.764456    159.067886    -92.621201    -1.514327    2.421237    28.834675    2.072556    3.833083    -0.829816    -3.401858    1.731180    -0.201479    11.837961    -1.052748    -3.329127    -0.359887    -8.544279    -5.417335    5.043150    8.700855    -17.985474    -28.006119    24.944670    -55.592896    1.931352    -12.908485    -97.036507    9.964540    -11.718881    -11.060437    -6.041873    -0.415778    -0.069551    29.294386    -21.484413    60.580566    -23.408173    -18.733440    64.486664    -2.514053    -4.843861    36.639935    9.744542    -5.590237    -2.444599    -8.969854    25.456009    -21.110846    3.627694    -21.379084    40.439980    0.000000    0.000000    0.000000    -17.920753    -29.102821    -13.917524    15.171984    32.344879    -12.735976    7.897483    7.140252    -15.941050    0.000000    0.000000    0.000000    
-0.557867    159.035629    -92.681480    -1.519235    2.046189    28.775146    1.959773    3.766313    -0.802808    -3.385147    1.723502    -0.195272    12.018145    -1.059060    -3.354855    -0.346555    -8.263057    -5.469920    5.211375    8.737651    -17.960081    -28.102791    24.898016    -55.705093    1.839666    -12.766893    -97.079788    10.192161    -11.697287    -11.046739    -5.928219    -0.469294    -0.043617    29.195526    -21.467131    60.503845    -23.372719    -18.767534    64.411156    -2.505117    -4.927738    36.852642    9.864157    -5.299867    -2.386793    -8.984519    25.617641    -21.123690    3.806096    -21.511166    40.423592    0.000000    0.000000    0.000000    -17.712860    -28.747166    -13.761017    15.133217    32.241192    -12.708977    7.944242    7.217712    -15.947625    0.000000    0.000000    0.000000    
-0.368819    159.010803    -92.734306    -1.530206    1.677617    28.720943    1.863157    3.706988    -0.793579    -3.309689    1.715043    -0.194888    11.932368    -1.146796    -3.420428    -0.116518    -7.889559    -5.484638    5.216292    8.693670    -17.940540    -28.195885    24.889639    -55.686184    1.753672    -12.608181    -97.159920    10.364260    -11.646783    -11.045209    -5.947797    -0.473636    -0.048485    29.139795    -21.386824    60.510925    -23.460941    -18.908901    64.334778    -2.391762    -5.003104    36.881214    9.995748    -5.017824    -2.336905    -9.004282    25.773668    -21.160332    3.966722    -21.635958    40.424694    0.000000    0.000000    0.000000    -17.479551    -28.398382    -13.587370    15.058376    32.129745    -12.650428    8.024300    7.280065    -15.984907    0.000000    0.000000    0.000000    
-0.159642    158.980499    -92.782341    -1.534238    1.291481    28.696718    1.825913    3.652566    -0.801938    -3.320101    1.729490    -0.197904    11.879272    -1.179369    -3.493072    0.120409    -7.599568    -5.505946    5.267048    8.676291    -17.914688    -28.212706    24.877697    -55.691559    1.695738    -12.501858    -97.253693    10.492588    -11.614079    -11.048974    -5.929956    -0.473064    -0.073168    29.100208    -21.334747    60.523273    -23.538689    -19.006189    64.256966    -2.375858    -5.071259    36.871017    10.118163    -4.722176    -2.336799    -9.028269    25.945257    -21.232553    4.174032    -21.766565    40.491425    0.000000    0.000000    0.000000    -17.271296    -28.008150    -13.468387    14.990991    32.017361    -12.565236    8.070706    7.331136    -16.026073    0.000000    0.000000    0.000000    
0.041299    158.962082    -92.835022    -1.542454    0.898307    28.673470    1.792002    3.612064    -0.790690    -3.318228    1.756485    -0.193949    11.870677    -1.302800    -3.550255    0.251834    -7.233342    -5.550801    5.294616    8.604353    -17.916864    -28.259945    24.865582    -55.674686    1.545981    -12.314696    -97.374550    11.214095    -11.641825    -10.879240    -5.922574    -0.472047    -0.153812    29.151062    -21.352003    60.619469    -23.531889    -19.000603    64.219673    -2.407437    -5.089842    36.806473    10.262981    -4.369342    -2.347804    -9.060606    26.096832    -21.280819    4.380127    -21.955978    40.495514    0.000000    0.000000    0.000000    -17.052799    -27.617134    -13.300557    14.951669    31.884661    -12.560196    8.121900    7.410980    -16.061430    0.000000    0.000000    0.000000    
